# xmcd CD database file
#
# Track frame offsets:
#	187
#	17782
#	45107
#	66157
#
# Disc length: 1185 seconds
#
# Revision: 0
# Processed by: cddbd v1.5.1PL0 Copyright (c) Steve Scherf et al.
# Submitted via: CDex 1.51
#
DISCID=27049f04
DTITLE=P.M. DAWN - Paper Doll
DYEAR=1992
DGENRE=Alternative
TTITLE0=Paper Doll (Radio Mix)
TTITLE1=Paper Doll (Club Mix)
TTITLE2=Paper Doll (Instrumental)
TTITLE3=Ode To A Forgetful Mind (The More Than Words Mix)
EXTD=YEAR: 1992.02.26
EXTT0=
EXTT1=
EXTT2=
EXTT3=
PLAYORDER=
